<svg xmlns="http://www.w3.org/2000/svg" width="269.65" height="35" viewBox="0 0 269.65 35"><rect class="svg__rect" x="0" y="0" width="107.95" height="35" fill="#A7BFC1"/><rect class="svg__rect" x="105.95" y="0" width="163.7" height="35" fill="#E46C17"/><path class="svg__text" d="M13.78 19.42L13.78 19.42L15.27 19.42Q15.27 20.15 15.75 20.55Q16.23 20.95 17.12 20.95L17.12 20.95Q17.90 20.95 18.29 20.63Q18.68 20.32 18.68 19.80L18.68 19.80Q18.68 19.24 18.28 18.94Q17.89 18.63 16.85 18.32Q15.82 18.01 15.21 17.63L15.21 17.63Q14.05 16.90 14.05 15.72L14.05 15.72Q14.05 14.69 14.89 14.02Q15.73 13.35 17.07 13.35L17.07 13.35Q17.96 13.35 18.66 13.68Q19.36 14.01 19.75 14.61Q20.15 15.22 20.15 15.96L20.15 15.96L18.68 15.96Q18.68 15.29 18.26 14.91Q17.84 14.54 17.06 14.54L17.06 14.54Q16.33 14.54 15.93 14.85Q15.53 15.16 15.53 15.71L15.53 15.71Q15.53 16.18 15.96 16.50Q16.40 16.81 17.39 17.10Q18.39 17.40 18.99 17.78Q19.60 18.16 19.88 18.65Q20.16 19.13 20.16 19.79L20.16 19.79Q20.16 20.86 19.34 21.49Q18.52 22.12 17.12 22.12L17.12 22.12Q16.20 22.12 15.42 21.77Q14.64 21.43 14.21 20.83Q13.78 20.22 13.78 19.42ZM26.13 14.66L23.49 14.66L23.49 13.47L30.26 13.47L30.26 14.66L27.60 14.66L27.60 22L26.13 22L26.13 14.66ZM34.80 22L33.25 22L36.48 13.47L37.81 13.47L41.04 22L39.49 22L38.79 20.01L35.49 20.01L34.80 22ZM37.14 15.28L35.90 18.82L38.38 18.82L37.14 15.28ZM48.10 22L44.99 22L44.99 13.47L47.91 13.47Q49.36 13.47 50.12 14.05Q50.87 14.63 50.87 15.78L50.87 15.78Q50.87 16.36 50.56 16.83Q50.24 17.30 49.63 17.56L49.63 17.56Q50.32 17.75 50.70 18.26Q51.08 18.78 51.08 19.51L51.08 19.51Q51.08 20.71 50.31 21.36Q49.54 22 48.10 22L48.10 22ZM46.47 18.15L46.47 20.82L48.12 20.82Q48.82 20.82 49.21 20.47Q49.60 20.13 49.60 19.51L49.60 19.51Q49.60 18.18 48.24 18.15L48.24 18.15L46.47 18.15ZM46.47 14.66L46.47 17.06L47.93 17.06Q48.62 17.06 49.01 16.75Q49.40 16.43 49.40 15.86L49.40 15.86Q49.40 15.23 49.04 14.95Q48.68 14.66 47.91 14.66L47.91 14.66L46.47 14.66ZM57.11 22L55.64 22L55.64 13.47L57.11 13.47L57.11 22ZM67.28 22L61.92 22L61.92 13.47L63.41 13.47L63.41 20.82L67.28 20.82L67.28 22ZM72.97 22L71.49 22L71.49 13.47L72.97 13.47L72.97 22ZM79.46 14.66L76.82 14.66L76.82 13.47L83.59 13.47L83.59 14.66L80.93 14.66L80.93 22L79.46 22L79.46 14.66ZM89.39 18.86L86.52 13.47L88.17 13.47L90.13 17.51L92.09 13.47L93.73 13.47L90.88 18.86L90.88 22L89.39 22L89.39 18.86Z" fill="#FFFFFF"/><path class="svg__text" d="M126.88 22L120.14 22L120.14 13.60L126.73 13.60L126.73 15.44L122.49 15.44L122.49 16.85L126.23 16.85L126.23 18.63L122.49 18.63L122.49 20.17L126.88 20.17L126.88 22ZM133.54 22L130.83 22L133.88 17.75L130.95 13.60L133.63 13.60L135.31 16.02L136.97 13.60L139.54 13.60L136.61 17.66L139.73 22L137.00 22L135.26 19.40L133.54 22ZM146.39 22L144.01 22L144.01 13.60L147.86 13.60Q149.00 13.60 149.84 13.98Q150.68 14.35 151.13 15.06Q151.59 15.76 151.59 16.71L151.59 16.71Q151.59 17.66 151.13 18.35Q150.68 19.05 149.84 19.42Q149.00 19.80 147.86 19.80L147.86 19.80L146.39 19.80L146.39 22ZM146.39 15.47L146.39 17.93L147.71 17.93Q148.44 17.93 148.82 17.61Q149.19 17.29 149.19 16.71L149.19 16.71Q149.19 16.12 148.82 15.80Q148.44 15.47 147.71 15.47L147.71 15.47L146.39 15.47ZM163.09 22L156.34 22L156.34 13.60L162.93 13.60L162.93 15.44L158.70 15.44L158.70 16.85L162.43 16.85L162.43 18.63L158.70 18.63L158.70 20.17L163.09 20.17L163.09 22ZM170.27 22L167.89 22L167.89 13.60L171.74 13.60Q172.88 13.60 173.72 13.98Q174.55 14.35 175.01 15.06Q175.47 15.76 175.47 16.71L175.47 16.71Q175.47 17.62 175.04 18.30Q174.61 18.98 173.82 19.36L173.82 19.36L175.63 22L173.09 22L171.57 19.77L170.27 19.77L170.27 22ZM170.27 15.47L170.27 17.93L171.59 17.93Q172.32 17.93 172.69 17.61Q173.07 17.29 173.07 16.71L173.07 16.71Q173.07 16.12 172.69 15.79Q172.32 15.47 171.59 15.47L171.59 15.47L170.27 15.47ZM182.63 22L180.26 22L180.26 13.60L182.63 13.60L182.63 22ZM190.01 22L187.81 22L187.81 13.60L189.76 13.60L192.72 18.45L195.60 13.60L197.55 13.60L197.58 22L195.40 22L195.37 17.55L193.21 21.17L192.16 21.17L190.01 17.67L190.01 22ZM209.48 22L202.74 22L202.74 13.60L209.33 13.60L209.33 15.44L205.09 15.44L205.09 16.85L208.83 16.85L208.83 18.63L205.09 18.63L205.09 20.17L209.48 20.17L209.48 22ZM216.62 22L214.29 22L214.29 13.60L216.24 13.60L219.95 18.07L219.95 13.60L222.28 13.60L222.28 22L220.33 22L216.62 17.52L216.62 22ZM229.23 15.48L226.65 15.48L226.65 13.60L234.17 13.60L234.17 15.48L231.61 15.48L231.61 22L229.23 22L229.23 15.48ZM239.96 22L237.54 22L241.25 13.60L243.59 13.60L247.30 22L244.84 22L244.17 20.37L240.62 20.37L239.96 22ZM242.40 15.93L241.32 18.61L243.48 18.61L242.40 15.93ZM257.84 22L251.46 22L251.46 13.60L253.84 13.60L253.84 20.11L257.84 20.11L257.84 22Z" fill="#FFFFFF" x="118.95"/></svg>